<svg xmlns="http://www.w3.org/2000/svg" xmlns:xlink="http://www.w3.org/1999/xlink" width="32px" height="32px" viewBox="-1.5 -3 23 28" version="1.1">
<g id="surface1">
<title>close</title>
<path style="stroke:none;fill-rule:nonzero;fill:rgb(0%,0%,0%);fill-opacity:1; scale: 67%;" d="M 6.160156 3.386719 C 6.269531 3.453125 6.371094 3.539062 6.457031 3.640625 C 9.066406 6.570312 11.691406 9.488281 14.332031 12.390625 C 17.046875 9.824219 19.757812 7.257812 22.472656 4.691406 C 23.863281 6.1875 25.234375 7.699219 26.589844 9.226562 C 23.875 11.800781 21.164062 14.378906 18.449219 16.953125 C 21.152344 19.976562 23.863281 22.988281 26.589844 25.988281 C 25.214844 27.28125 23.839844 28.578125 22.472656 29.882812 C 19.769531 26.875 17.054688 23.871094 14.332031 20.882812 C 11.617188 23.449219 8.90625 26.015625 6.191406 28.582031 C 4.828125 27.078125 3.472656 25.574219 2.121094 24.0625 C 2.128906 23.992188 2.164062 23.933594 2.230469 23.886719 C 4.898438 21.363281 7.558594 18.835938 10.214844 16.300781 C 7.511719 13.289062 4.808594 10.28125 2.105469 7.269531 C 3.46875 5.984375 4.820312 4.691406 6.160156 3.386719 Z M 6.160156 3.386719 "/>
</g>
</svg>