<svg version="1.1" xmlns="http://www.w3.org/2000/svg" width="32" height="32" viewBox="0 0 32 32">
<title>close</title>
<path fill="#fff" d="M2.76 8.76l4.2-4.68 8.040 6 6.48-4.8 4.8 5.16-5.52 5.88 6.36 7.92-6.12 4.56-5.64-6.36-8.76 5.28-4.2-4.8 7.080-6.6-6.72-7.56z"></path>
<path fill="#000" d="M23.16 15.871l7.25-6.75-5.223-5.681-3.876 1.075-0.784 0.729-3.844 3.581-5.995-6.521-3.876 1.075-0.784 0.729-4.439 4.135 7.25 7.886-7.25 6.75 5.223 5.681 3.876-1.075 0.784-0.729 3.845-3.58 5.994 6.521 3.876-1.075 5.222-4.861-7.25-7.89zM23.149 26.403l-1.839 1.711-7.249-7.885-7.249 6.749-3.655-3.976 7.249-6.75-7.249-7.886 3.655-3.404 7.249 7.886 7.25-6.75 3.656 3.977-7.25 6.749 7.249 7.886-1.818 1.693z"></path>
</svg>
